<?xml version="1.0" encoding="UTF-8"?>
<svg id="Layer_1" data-name="Layer 1" xmlns="http://www.w3.org/2000/svg" xmlns:xlink="http://www.w3.org/1999/xlink" viewBox="0 0 4204.19 5995.83">
  <defs>
    <style>
      .cls-1 {
        fill: #901a1d;
      }

      .cls-1, .cls-2, .cls-3, .cls-4, .cls-5, .cls-6 {
        stroke-width: 0px;
      }

      .cls-2 {
        fill: url(#linear-gradient);
      }

      .cls-3 {
        fill: #000;
      }

      .cls-4 {
        fill: #0c1528;
      }

      .cls-5 {
        fill: #fff;
      }

      .cls-6 {
        fill: #cb2128;
      }
    </style>
    <linearGradient id="linear-gradient" x1="0" y1="2420.43" x2="4204.19" y2="2420.43" gradientUnits="userSpaceOnUse">
      <stop offset=".06" stop-color="#929497"/>
      <stop offset=".15" stop-color="#e9e9eb"/>
      <stop offset=".23" stop-color="#bbbdbf"/>
      <stop offset=".38" stop-color="#f1f1f2"/>
      <stop offset=".52" stop-color="#d4d8d3"/>
      <stop offset=".67" stop-color="#f1f1f2"/>
      <stop offset=".8" stop-color="#a6a8ab"/>
      <stop offset=".82" stop-color="#c4c5c8"/>
      <stop offset=".85" stop-color="#dddddf"/>
      <stop offset=".87" stop-color="#ebeced"/>
      <stop offset=".89" stop-color="#f1f1f2"/>
      <stop offset=".96" stop-color="#808184"/>
    </linearGradient>
  </defs>
  <path class="cls-4" d="M4143.58,1303.47l.72-.05-.28-25.15c-2.09-187.69-25.61-428.66-32.76-498.04l-1.75-16.98L2102.07,58.48,94.73,763.25l-1.75,16.98c-9.22,89.33-30.86,316.7-32.78,498.05l-.26,24.98.61.05c-2.99,98.7-7.48,466.38,68.4,919.18,79.67,474.72,267.59,1149.11,710.49,1666.06l21.84,25.49,3.64-4.87c172.11,200.6,596.19,632.19,1227.76,867.23l9.39,3.49,9.38-3.49c630.67-234.72,1054.4-665.37,1226.98-866.34l3.49,5.05,22.76-26.56c443.16-517.25,630.97-1191.5,710.49-1666.07,75.84-452.57,71.4-820.08,68.41-919.01ZM2500.33,3058.73c-5.81-259.77-139.19-402.16-301.56-484.31-261-132.06-622.84-180.18-817.67-514.94,39.54,438.25,468.43,555.31,755.85,699.8,309.72,155.72,271.53,507.54-18.98,773.35,84.38-532.71-571.83,87.6-630.63-629.15,250.47,310.44,521.94,77.61,672.66,230.97,43.39-236.98-447.78-252.48-762.51-505.67-418.99-340.42-359.41-1007.78-107.68-1495.64,139.1,963.91,746.18,1026.34,1057.89,1251.26,165.98,119.77,338.29,342.05,152.63,674.33ZM2672.9,2800.28c13-84.38,5.55-350.11-260.41-489.24,276.26-117.97,413.56-231.23,525.83-134.15,47.44-23.25,155.52-56.62,185.59,74.31-115.78-62.81-410.62,484.36-451.01,549.08ZM2847.58,2231.25l-150.2,58.43c120.34,16.44,119.31,40.88,150.2-58.43Z"/>
  <path class="cls-1" d="M3964.39,959.88l-8.29-53.74L2123.79,246.99h-37.04L254.45,906.14l-8.29,53.74c-4.1,26.38-97.57,653.34,76.67,1416.84,102.63,450.03,277.72,853.31,520.45,1198.46,303.9,432.35,714.5,773.29,1220.21,1013.54l18.62,8.83h46.41l18.64-8.83c505.7-240.25,916.2-581.19,1220.1-1013.54,242.72-345.15,417.82-748.43,520.56-1198.46,174.13-763.5,80.65-1390.46,76.56-1416.84ZM420.61,1040.97l1684.65-606.06,1684.78,606.06c17.99,164.22,57.5,689.2-80.77,1294.94-218.93,959.7-758.45,1655.8-1604.02,2069.75-843.62-412.98-1382.7-1107.13-1602.59-2063.72-139.56-606.82-100.04-1135.89-82.06-1300.97Z"/>
  <path class="cls-6" d="M3879.53,1026.64l-7.86-51.26-1748.74-629.11h-35.31L338.98,975.39l-7.97,51.26c-3.87,25.09-93.15,623.51,73.13,1352.12,97.99,429.56,265.12,814.34,496.75,1143.75,290.01,412.66,681.88,738.09,1164.43,967.35l17.77,8.39h44.36l17.77-8.39c482.66-229.27,874.41-554.7,1164.53-967.35,231.52-329.41,398.66-714.19,496.65-1143.75,166.27-728.61,77-1327.03,73.12-1352.12ZM3709.28,2335.91c-218.93,959.7-758.45,1655.8-1604.02,2069.75-843.62-412.98-1382.7-1107.13-1602.59-2063.72-139.56-606.82-100.04-1135.89-82.06-1300.97l1684.65-606.06,1684.78,606.06c17.99,164.22,57.5,689.2-80.77,1294.94Z"/>
  <path class="cls-2" d="M4202.93,1304.09h1.18c0-229.48-34.67-544.25-36.07-557.5l-3.02-26.92L2114.98,0h-25.73L39.2,719.67l-3.02,26.92C34.68,759.84,0,1074.61,0,1304.09h1.29c-3.12,105-6.79,473.18,68.91,926.11,80.33,480.28,268.58,1154.84,709.01,1679.17-1.07.86-2.14,1.93-3.33,2.79,143.44,175.96,594.33,671.33,1306.57,928.7h39.19c712.35-257.38,1163.24-752.74,1306.67-928.7-1.18-.86-2.26-1.93-3.44-2.79,440.55-524.33,628.68-1198.89,709.02-1679.17,75.81-452.93,72.04-821.12,69.03-926.11ZM4048.62,2218.04c-79.47,474.25-266.42,1141.81-704.38,1653-1.19-1.72-2.49-3.45-3.66-5.17-144.62,173.37-578.49,639.66-1238.51,885.29-660.02-245.63-1093.89-711.92-1238.52-885.29-1.07,1.72-2.36,3.44-3.66,5.17-437.97-511.19-624.8-1178.75-704.39-1653-88.19-526.27-67.3-935.26-67.08-939.36l-1.29-.11c1.94-183.39,24.56-417.29,32.63-495.58L2102.07,87.01l1982.41,695.98c8.08,78.29,30.58,312.19,32.62,495.58l-1.4.11c.22,4.09,21.11,413.09-67.08,939.36Z"/>
  <g>
    <path class="cls-3" d="M697.51,5057.23h250.87v83.84h-160.46v195.08h152.19v83.84h-152.19v311.41h-90.41v-674.18Z"/>
    <path class="cls-3" d="M1290.63,5533.27v24.84c0,80.72-13.92,182.79-147.8,182.79-121.43,0-145.17-80.02-145.17-181.26v-341.22c0-105.66,46.83-170.68,146.58-170.68,120.84,0,143.36,82.36,143.36,173.61v28.57h-91.01v-37.87c0-48.42-9.59-81.88-52.95-81.88s-53.85,31.05-53.85,82.79v353.76c0,53.94,11.29,92.46,55.47,92.46s53.66-36.39,53.66-92.17v-33.73h91.72Z"/>
    <path class="cls-3" d="M1546.47,5536.6v40.58c0,55.78,17.95,86.24,60.72,86.24s57.89-36.95,57.89-93.39c0-75.17-16.35-101.09-88.11-157.41-72.36-56.92-110.22-92.46-110.22-192.07,0-87.41,26.34-173.82,141.34-173.52,114.31.3,136.59,79.78,136.59,158.17v34.02h-89.7v-31.6c0-50.74-9.18-82.41-48.61-82.41s-49.21,34.08-49.21,82.21c0,53.96,10.49,77.47,70.83,122.27,97.81,72.98,128.2,114.67,128.2,227.1,0,95.28-30.8,184.1-151.53,184.1s-148.6-76.02-148.6-164.83v-39.46h90.41Z"/>
    <path class="cls-3" d="M1823.82,5057.23h90.41v271.76h123.87v-271.76h90.41v674.18h-90.41v-319.29h-123.87v319.29h-90.41v-674.18Z"/>
    <path class="cls-3" d="M2303.58,5536.41l-27.23,195h-91.82l109.5-674.18h128.08l113.84,674.18h-94.55l-29.95-195h-107.86ZM2400.43,5453.27c-18.85-128.8-34.49-240-41.66-310.98h-3.43c-2.73,54.1-24.62,201.54-40.05,310.98h85.14Z"/>
    <path class="cls-3" d="M2588.83,5057.23h90.41v271.76h123.87v-271.76h90.41v674.18h-90.41v-319.29h-123.87v319.29h-90.41v-674.18Z"/>
    <path class="cls-3" d="M3078.9,5057.23v674.18h-90.41v-674.18h90.41Z"/>
    <path class="cls-3" d="M3174.19,5731.41v-674.18h105.75c30.86,107.61,116.92,449.09,125.69,492.95h1.31c-4.44-86.17-5.05-181.04-5.05-291.45v-201.49h84.04v674.18h-101.91c-27.42-99.9-120.05-470.19-129.32-509.19h-1.01c4.75,81.45,5.24,179.71,5.24,301.12v208.07h-84.75Z"/>
  </g>
  <g>
    <path class="cls-5" d="M1801.97,4087.93v-5.11c.32-52.26,22.11-88.46,54.37-134.98,24.34-34.73,32.1-46.81,32.1-79.77s-4.23-45.75-23.05-45.75c-17.22,0-23.78,13.16-23.78,37.59v14.73h-37.82v-15.96c0-33.42,10.58-70.71,63.47-70.71,49.11,0,62.29,32.36,62.29,77.73s-14.18,66.01-38.44,99.43c-23.64,32.98-41.33,63.01-43.61,87.49h88.06l-5.61,35.31h-127.98Z"/>
    <path class="cls-5" d="M2090.14,3865.29v146.17c0,47.26-15.94,80.11-67.94,80.11-47.99,0-65.11-32.26-65.11-79.52v-144.07c0-53.28,23.83-80.01,67.44-80.01s65.62,26.1,65.62,77.32ZM1997.42,3863.51v152.61c0,25.24,7.7,38.13,26.33,38.13s25.74-11.95,25.74-39.36v-152.2c0-25.23-8.56-37.4-25.88-37.4s-26.19,10.67-26.19,38.22Z"/>
    <path class="cls-5" d="M2116.04,4087.93v-5.11c.32-52.26,22.11-88.46,54.37-134.98,24.34-34.73,32.1-46.81,32.1-79.77s-4.23-45.75-23.05-45.75c-17.22,0-23.78,13.16-23.78,37.59v14.73h-37.82v-15.96c0-33.42,10.58-70.71,63.47-70.71,49.11,0,62.29,32.36,62.29,77.73s-14.18,66.01-38.44,99.43c-23.64,32.98-41.33,63.01-43.61,87.49h88.06l-5.61,35.31h-127.98Z"/>
    <path class="cls-5" d="M2269.2,4087.93v-5.11c.32-52.26,22.11-88.46,54.37-134.98,24.34-34.73,32.1-46.81,32.1-79.77s-4.23-45.75-23.05-45.75c-17.22,0-23.78,13.16-23.78,37.59v14.73h-37.82v-15.96c0-33.42,10.58-70.71,63.47-70.71,49.11,0,62.29,32.36,62.29,77.73s-14.18,66.01-38.44,99.43c-23.64,32.98-41.33,63.01-43.61,87.49h88.06l-5.61,35.31h-127.98Z"/>
  </g>
</svg>